<?xml version="1.0" encoding="utf-8"?>
<!-- Generator: Adobe Illustrator 28.0.0, SVG Export Plug-In . SVG Version: 6.00 Build 0)  -->
<svg version="1.1" id="Capa_2" xmlns="http://www.w3.org/2000/svg" xmlns:xlink="http://www.w3.org/1999/xlink" x="0px" y="0px"
	 viewBox="0 0 1280 1280" style="enable-background:new 0 0 1280 1280;" xml:space="preserve">
<style type="text/css">
	.st0{fill:#FFFFFF;}
	.st1{fill:#B0B0B0;}
	.st2{fill:#FF001B;}
	.st3{fill:#236097;}
	.st4{fill:#226093;}
	.st5{fill:#FF6200;}
</style>
<path class="st0" d="M639.1,89.9c-53.6,0-105.7,10.6-154.6,31.6c-47.3,20.3-89.8,49.3-126.3,86.2c-36.5,37-65.1,80-85.2,127.9
	c-20.7,49.6-31.2,102.3-31.2,156.7V1151c0,20.2,16.4,36.6,36.6,36.6h721.5c20.2,0,36.6-16.4,36.6-36.6V492.3
	c0-54.3-10.5-107-31.2-156.7c-20-47.9-48.7-91-85.2-127.9c-36.5-37-79-66-126.3-86.2C744.8,100.5,692.8,89.9,639.1,89.9z"/>
<g>
	<g>
		<g>
			<path class="st1" d="M999.9,1192.6H278.4c-22.9,0-41.6-18.6-41.6-41.6V492.3c0-55,10.6-108.4,31.6-158.6
				c20.3-48.5,49.3-92.1,86.2-129.5c36.9-37.4,80-66.8,127.9-87.3c49.6-21.2,102.3-32,156.6-32c54.3,0,107,10.8,156.6,32
				c47.9,20.5,90.9,49.9,127.9,87.3c36.9,37.4,65.9,81,86.2,129.5c21,50.2,31.6,103.6,31.6,158.6V1151
				C1041.4,1173.9,1022.8,1192.6,999.9,1192.6z M639.1,89.9c-53.6,0-105.7,10.6-154.6,31.6c-47.3,20.3-89.8,49.3-126.3,86.2
				c-36.5,37-65.1,80-85.2,127.9c-20.7,49.6-31.2,102.3-31.2,156.7V1151c0,20.2,16.4,36.6,36.6,36.6h721.5
				c20.2,0,36.6-16.4,36.6-36.6V492.3c0-54.3-10.5-107-31.2-156.7c-20-47.9-48.7-91-85.2-127.9c-36.5-37-79-66-126.3-86.2
				C744.8,100.5,692.8,89.9,639.1,89.9z"/>
		</g>
		<path class="st2" d="M420.1,275.9c15.6-4.7,34.9-5.1,46.8-4.6c28.4,1,56.4,8.9,82.5,19.6c99.4,40.9,193.2,123,222.7,229.2
			c7,25.1,9.1,48.3,3.8,74c-4.8,23.3-15.5,46.4-31.1,64.9c-10.3,12.3-23.4,22.6-37.8,29.9c-8,4.1-26,8.8-24.8,20.8
			c1.9,18.5,33.8,13.3,45.4,11c23.6-4.5,44.5-16.8,62.1-33c31.5-28.8,51.7-70,62.3-110.8c22.6-86.4,14.5-182.5-29.1-260
			c-61.1-108.6-127.7-129.3-154.7-133.1c-9.6-0.9-19.3-1.4-29.1-1.4C553.3,182.4,475.7,218.2,420.1,275.9z"/>
		<path class="st2" d="M828.1,714.7c-6.7,36.4-97.5,65-180.4,20.1C579.6,698,494.1,590.9,457.2,558.4
			c-60.1-53-122.4-33.3-111.5,22.2c37.5,128.2,154.7,221.7,293.4,221.7c96.2,0,182-45,238.1-115.2
			C852.8,680.9,838.7,657.3,828.1,714.7z"/>
		<path class="st3" d="M945.1,484c0-0.9-0.1-1.8-0.1-2.7c-0.1-1.9-0.1-3.7-0.2-5.6c-0.1-1.1-0.1-2.1-0.2-3.2c-0.1-1.7-0.2-3.4-0.3-5
			c-0.1-1.1-0.2-2.3-0.3-3.4c-0.1-1.6-0.3-3.2-0.5-4.8c-0.1-1.1-0.3-2.3-0.4-3.4c-0.2-1.6-0.4-3.2-0.6-4.7c-0.1-1.1-0.3-2.3-0.5-3.4
			c-0.2-1.6-0.5-3.1-0.7-4.7c-0.2-1.1-0.4-2.2-0.5-3.3c-0.3-1.6-0.5-3.2-0.8-4.7c-0.2-1.1-0.4-2.1-0.6-3.2c-0.3-1.6-0.7-3.2-1-4.9
			c-0.2-1-0.4-2-0.6-3c-0.4-1.7-0.8-3.4-1.2-5.1c-0.2-0.9-0.4-1.8-0.7-2.7c-0.5-1.8-0.9-3.7-1.4-5.5c-0.2-0.7-0.4-1.5-0.6-2.2
			c-0.6-2.2-1.2-4.3-1.9-6.4c-0.1-0.4-0.2-0.8-0.3-1.2c-2.4-7.8-5-15.4-8-22.9c-0.1-0.3-0.2-0.6-0.4-0.9c-0.9-2.2-1.7-4.3-2.6-6.5
			c-0.2-0.5-0.4-0.9-0.6-1.4c-0.8-2-1.7-3.9-2.6-5.9c-0.2-0.5-0.5-1-0.7-1.5c-0.9-1.9-1.8-3.8-2.7-5.7c-0.3-0.5-0.5-1-0.8-1.6
			c-0.9-1.9-1.9-3.7-2.8-5.6c-0.3-0.5-0.5-1-0.8-1.5c-1-1.9-2-3.8-3-5.6c-0.2-0.4-0.5-0.9-0.7-1.3c-1.1-1.9-2.2-3.9-3.3-5.8
			c-0.2-0.3-0.4-0.7-0.6-1c-1.2-2.1-2.5-4.1-3.7-6.1c-0.1-0.2-0.2-0.4-0.3-0.6c-11.3-18.2-24.5-35-39.2-50.4c0,0,0,0,0,0
			c-1.8-1.9-3.7-3.8-5.5-5.6c0,0-0.1-0.1-0.1-0.1c-1.8-1.8-3.7-3.6-5.6-5.4c0,0-0.1-0.1-0.1-0.1c-1.9-1.8-3.9-3.6-5.8-5.3
			c0,0,0,0,0,0c1.3,3.6,7.2,13.3,13.2,22c26.5,37.7,46.6,79.9,55.9,124.9c9.1,44.1,7.9,93.6-6.3,136.5
			c-11.8,35.6-41.5,66.2-79.5,72.5c-62.8,10.4-223.2-127.5-250.4-274.9c-8.2-44.6-5.3-158.2,82.1-157.9c-5.8-0.3-11.7-0.5-17.6-0.5
			c-112.6,0-210.9,61.6-264.1,153.3c0,0,0,0,0,0C346.9,399.9,414,468.1,459,503.9c202.5,160.9,394.5,179.4,350.3,237.3
			c-2.5,3.3-7.1,8.9-12.4,11.2c-55.5,24.2-120.8,19.2-176.8-3.9c-44.4-18.3-78.1-49.7-112.7-82.7c-9.1-8.6-29.8-26.4-45.6-10.5
			c-15.8,15.9,7,28.1-23,67.8c-0.5,0.7-1,1.4-1.5,2.1c0,0,0,0,0,0c1.6,1.4,3.2,2.8,4.9,4.2c0.1,0.1,0.3,0.2,0.4,0.3
			c1.6,1.3,3.2,2.7,4.8,4c0.2,0.2,0.4,0.3,0.6,0.5c1.6,1.3,3.2,2.5,4.8,3.8c0.2,0.2,0.4,0.3,0.6,0.5c1.6,1.2,3.2,2.5,4.9,3.7
			c0.2,0.1,0.4,0.3,0.5,0.4c1.7,1.2,3.4,2.5,5.1,3.7c0.1,0.1,0.2,0.1,0.2,0.2c10.8,7.7,22.2,14.6,33.9,20.9c0.2,0.1,0.5,0.2,0.7,0.4
			c1.6,0.9,3.3,1.7,4.9,2.5c0.5,0.2,0.9,0.5,1.4,0.7c1.5,0.8,3.1,1.5,4.6,2.2c0.6,0.3,1.2,0.6,1.8,0.9c1.5,0.7,3,1.4,4.4,2
			c0.7,0.3,1.4,0.6,2.1,0.9c1.4,0.6,2.9,1.3,4.3,1.9c0.7,0.3,1.5,0.6,2.2,0.9c1.4,0.6,2.9,1.2,4.3,1.7c0.8,0.3,1.6,0.6,2.3,0.9
			c1.4,0.5,2.8,1.1,4.3,1.6c0.8,0.3,1.6,0.6,2.4,0.9c1.4,0.5,2.9,1,4.3,1.5c0.8,0.3,1.6,0.5,2.4,0.8c1.5,0.5,2.9,1,4.4,1.4
			c0.6,0.2,1.3,0.4,1.9,0.6c3.1,1,6.2,1.9,9.4,2.7c0.7,0.2,1.4,0.4,2.2,0.6c1.2,0.3,2.5,0.6,3.8,0.9c1.1,0.3,2.2,0.6,3.3,0.8
			c1.2,0.3,2.4,0.5,3.6,0.8c1.2,0.3,2.4,0.5,3.6,0.8c1.2,0.2,2.3,0.5,3.5,0.7c1.2,0.2,2.5,0.5,3.7,0.7c1.2,0.2,2.3,0.4,3.5,0.6
			c1.3,0.2,2.5,0.4,3.8,0.6c1.1,0.2,2.3,0.4,3.4,0.5c1.3,0.2,2.6,0.4,3.9,0.6c1.1,0.2,2.3,0.3,3.4,0.4c1.3,0.2,2.7,0.3,4.1,0.5
			c1.1,0.1,2.2,0.2,3.3,0.4c1.4,0.1,2.8,0.3,4.2,0.4c1.1,0.1,2.1,0.2,3.2,0.3c1.5,0.1,3,0.2,4.5,0.3c1,0.1,2,0.1,3,0.2
			c1.7,0.1,3.3,0.1,5,0.2c0.8,0,1.7,0.1,2.5,0.1c2.5,0.1,5,0.1,7.6,0.1c169,0,306.1-138.8,306.1-310
			C945.2,489.6,945.1,486.8,945.1,484z"/>
		<path class="st0" d="M460.2,305.5c-19.1,7.7-22.5,9-37.8,18.1c9.5,6,13.5,8.4,24.7,15.6c-7.7,25.9-9.1,30.6-13.6,56.5
			c13.6-20.9,16.1-24.7,32.8-44c15.3,10.2,19.9,13.2,36.7,24.7c-5.8-22.9-7.4-29-11.3-50.1c20.5-17.5,25.4-21.7,47.7-37
			c-24.5,2.7-29.7,3.3-51.3,8c-0.9-20.1-1.1-24.3,0.4-41c-7,10.7-16.4,25-22,36.5C464.5,296.6,463.3,302.6,460.2,305.5"/>
	</g>
</g>
<g>
	<g>
		<path class="st4" d="M288.6,933.6v-0.2c0-23.2,18.1-40.5,41.2-40.5c17.1,0,28.6,8.3,35.1,20.2l-21.4,12.5c-2.9-5.5-7-9.4-14.1-9.4
			c-8.8,0-14.5,7.6-14.5,17v0.2c0,10.1,6,17.2,14.5,17.2c7.3,0,11.4-4,14.6-9.8l21.4,12.1c-6.5,11.5-17.4,21-36.7,21
			C307.3,973.8,288.6,957.6,288.6,933.6z"/>
		<path class="st4" d="M365.2,954.9v-0.2c0-12.1,9-18.8,23.1-18.8c5.1,0,11.6,1.1,14.3,2.2v-1c0-5.5-3.4-8.8-11.2-8.8
			c-6.2,0-11.4,1.3-16.7,3.4l-4.4-16.7c7-2.7,15-4.4,25.5-4.4c12.3,0,20.3,2.5,25.6,7.9c4.5,4.5,6.3,10.4,6.3,19.2v34.5h-25.2V966
			c-4.2,4.5-9.9,7.5-17.4,7.5C373.4,973.6,365.2,966.9,365.2,954.9z M402.8,949.7v-2.5c-1.4-0.6-3.7-1-5.8-1c-5,0-7.8,3-7.8,6.8v0.2
			c0,3.5,2.5,5.9,5.8,5.9C399.5,959,402.8,955.5,402.8,949.7z"/>
		<path class="st4" d="M433.1,911.6h25.2v8.1c3.9-5,10-9.5,18.3-9.5c8.2,0,14.5,3.5,17.8,10c5.1-5.8,11.2-10,20.5-10
			c13,0,21,8.4,21,22.1v39.9h-25.2v-32c0-5.1-3-8-6.7-8c-3.7,0-7,2.9-7,8v32h-25.2v-32c0-5.1-3-8-6.7-8c-3.7,0-7,2.9-7,8v32h-25.2
			V911.6z"/>
		<path class="st4" d="M541.7,911.6h25.2v7.4c4.1-4.4,8.8-8.9,18-8.9c14.6,0,26,12.7,26,31.3v0.2c0,19.2-11.5,31.9-25.8,31.9
			c-9.2,0-14.3-4-18.2-8.3v24.6h-25.2V911.6z M586.4,942v-0.2c0-6.1-4.3-10.9-10.1-10.9s-10.1,4.8-10.1,10.9v0.2
			c0,6,4.3,10.9,10.1,10.9S586.4,948.1,586.4,942z"/>
		<path class="st4" d="M611.6,942.2V942c0-18.1,13-31.8,31.1-31.8c21.5,0,31.5,15,31.5,33.4c0,1.3,0,2.9-0.1,4.2h-38.9
			c1.8,5.3,6,8.1,11.4,8.1c4.5,0,8.3-2.1,12.3-6.2l13.5,10.8c-6,7.8-14.5,13.2-27.6,13.2C625,973.6,611.6,961,611.6,942.2z
			 M651.3,936.7c-0.6-5.8-4-9.1-8.4-9.1c-4.2,0-7.2,3.5-8,9.1H651.3z"/>
		<path class="st4" d="M674.3,942.1v-0.2c0-17.1,14.2-31.7,34.1-31.7c19.8,0,33.9,14.4,33.9,31.5v0.2c0,17.1-14.2,31.7-34.1,31.7
			C688.4,973.6,674.3,959.2,674.3,942.1z M718.2,942.1v-0.2c0-6-4.4-10.8-10-10.8c-5.7,0-9.8,4.8-9.8,10.5v0.2c0,6,4.4,10.8,10,10.8
			C714.1,952.6,718.2,947.9,718.2,942.1z"/>
		<path class="st4" d="M745.5,911.6h25.2v8.4c3.9-5,10-9.9,18.5-9.9c12.7,0,20.7,8.4,20.7,22.1v39.9h-25.2v-31.8
			c0-5.2-3.1-8.2-6.9-8.2s-7.2,3-7.2,8.2v31.8h-25.2V911.6z"/>
		<path class="st4" d="M812.4,954.9v-0.2c0-12.1,9-18.8,23.1-18.8c5.1,0,11.6,1.1,14.3,2.2v-1c0-5.5-3.4-8.8-11.2-8.8
			c-6.2,0-11.4,1.3-16.7,3.4l-4.4-16.7c7-2.7,15-4.4,25.5-4.4c12.3,0,20.3,2.5,25.6,7.9c4.5,4.5,6.3,10.4,6.3,19.2v34.5h-25.2V966
			c-4.2,4.5-9.9,7.5-17.4,7.5C820.6,973.6,812.4,966.9,812.4,954.9z M849.9,949.7v-2.5c-1.4-0.6-3.7-1-5.8-1c-5,0-7.8,3-7.8,6.8v0.2
			c0,3.5,2.5,5.9,5.8,5.9C846.6,959,849.9,955.5,849.9,949.7z"/>
		<path class="st4" d="M883.3,951.8V931h-7.1v-19.4h7.1v-15.2h25.2v15.2h14V931h-14v15.3c0,4.5,2.1,6.2,6.1,6.2c2.3,0,5-0.7,7.6-1.9
			V970c-4,2.1-10,3.4-16.1,3.4C891.2,973.5,883.3,966.6,883.3,951.8z"/>
		<path class="st4" d="M923.1,942.1v-0.2c0-17.1,14.2-31.7,34.1-31.7c19.8,0,33.9,14.4,33.9,31.5v0.2c0,17.1-14.2,31.7-34.1,31.7
			C937.1,973.6,923.1,959.2,923.1,942.1z M967,942.1v-0.2c0-6-4.4-10.8-10-10.8c-5.7,0-9.8,4.8-9.8,10.5v0.2c0,6,4.4,10.8,10,10.8
			C962.9,952.6,967,947.9,967,942.1z"/>
	</g>
</g>
<g>
	<polygon class="st5" points="730.6,1036.4 730.6,1019.7 698.6,1025.4 698.6,1036.4 	"/>
	<path class="st5" d="M706.4,1112.5c8,0,13.4-2.9,17.7-8.7l0.3,7.1h18.5v-65.7h-19.2v38.7c0,8-3.9,13-10.4,13
		c-6.3,0-9.7-4.3-9.7-12.3v-39.5h-19.2v42.6C684.3,1102.9,692.9,1112.5,706.4,1112.5"/>
	<path class="st5" d="M645.6,1043.6c-9.6,0-17.6,1.5-25.3,4.4v15.4c7.6-2.9,15.2-4.7,22.3-4.7c8.9,0,13.8,4,13.8,11.1
		c-1.5-0.1-4-0.3-6.5-0.3c-20.2,0-33,8.3-33,22.6c0,12.4,8.7,20.2,22.5,20.2c7.7,0,13.3-3.2,17.2-8.5l0.3,6.8h18v-38.6
		C674.8,1053.6,664.3,1043.6,645.6,1043.6z M656.4,1087c0,7-4.7,11.8-11.4,11.8c-5.9,0-9.6-2.7-9.6-8c0-6.1,5.8-9.2,16.2-9.2
		c1.5,0,3.9,0.1,4.8,0.3V1087z"/>
	<path class="st5" d="M574.8,1060.2v28.1c0,15.9,8.4,23.9,23.2,23.9c5.3,0,9.7-0.6,11.9-1.3v-14.7c-1.4,0.4-3.9,0.8-6.8,0.8
		c-6.2,0-9-3-9-10v-26.8h16.7v-14.9h-16.7v-19.9l-19.2,3.4v16.4h-9.6v14.9H574.8z"/>
	<rect x="538.7" y="1045.2" class="st5" width="19.2" height="65.7"/>
	<path class="st5" d="M548.3,1038.4c6.7,0,11.4-4.6,11.4-11c0-6.6-4.7-11-11.4-11c-6.7,0-11.4,4.6-11.4,11
		C536.9,1034,541.6,1038.4,548.3,1038.4"/>
</g>
</svg>
